<mxfile host="Electron" modified="2025-01-15T15:28:57.690Z" agent="Mozilla/5.0 (Windows NT 10.0; Win64; x64) AppleWebKit/537.36 (KHTML, like Gecko) draw.io/22.1.2 Chrome/114.0.5735.289 Electron/25.9.4 Safari/537.36" etag="DEYGJAI11groHl2BmgrB" version="22.1.2" type="device" pages="2">
  <diagram name="arch_general_architecture_pg" id="Zyn4XtSnDLKSg5mtdKSU">
    <mxGraphModel dx="1420" dy="856" grid="1" gridSize="10" guides="1" tooltips="1" connect="1" arrows="1" fold="1" page="1" pageScale="1" pageWidth="827" pageHeight="1169" math="0" shadow="0">
      <root>
        <mxCell id="0" />
        <mxCell id="1" parent="0" />
        <mxCell id="nWp-eLL03zswu_rfTDF6-1" value="" style="rounded=1;whiteSpace=wrap;html=1;fontFamily=VK Sans Display;strokeColor=none;arcsize=12;fillColor=#FFFFFF;spacing=0;spacingTop=12;spacingBottom=12;arcSize=12;absoluteArcSize=1;fontSize=14;fontColor=#212121;" parent="1" vertex="1">
          <mxGeometry x="29" y="20" width="961" height="810" as="geometry" />
        </mxCell>
        <mxCell id="nWp-eLL03zswu_rfTDF6-2" value="&lt;font style=&quot;font-size: 12px;&quot;&gt;SaaS&lt;/font&gt;" style="rounded=1;whiteSpace=wrap;html=1;fontFamily=VK Sans Display;strokeColor=none;arcsize=12;fillColor=#F6F7F9;spacing=0;spacingTop=12;spacingBottom=12;arcSize=12;absoluteArcSize=1;verticalAlign=top;fontStyle=1;fontSize=14;fontColor=#212121;" parent="1" vertex="1">
          <mxGeometry x="290" y="620" width="440" height="200" as="geometry" />
        </mxCell>
        <mxCell id="nWp-eLL03zswu_rfTDF6-3" value="&lt;font style=&quot;font-size: 14px;&quot;&gt;CLI&lt;/font&gt;" style="rounded=1;whiteSpace=wrap;html=1;fontFamily=VK Sans Display;strokeColor=none;arcsize=12;fillColor=#F6F7F9;spacing=0;spacingTop=12;spacingBottom=12;arcSize=12;absoluteArcSize=1;fontSize=14;fontColor=#212121;" parent="1" vertex="1">
          <mxGeometry x="370" y="160" width="120" height="40" as="geometry" />
        </mxCell>
        <mxCell id="nWp-eLL03zswu_rfTDF6-4" value="&lt;font style=&quot;font-size: 14px;&quot;&gt;Портал самообслуживания&lt;/font&gt;" style="rounded=1;whiteSpace=wrap;html=1;fontFamily=VK Sans Display;strokeColor=none;arcsize=12;fillColor=#F6F7F9;spacing=0;spacingTop=12;spacingBottom=12;arcSize=12;absoluteArcSize=1;fontSize=14;fontColor=#212121;" parent="1" vertex="1">
          <mxGeometry x="130" y="160" width="200" height="40" as="geometry" />
        </mxCell>
        <mxCell id="nWp-eLL03zswu_rfTDF6-5" value="&lt;font style=&quot;font-size: 14px;&quot;&gt;Terraform&lt;/font&gt;" style="rounded=1;whiteSpace=wrap;html=1;fontFamily=VK Sans Display;strokeColor=none;arcsize=12;fillColor=#F6F7F9;spacing=0;spacingTop=12;spacingBottom=12;arcSize=12;absoluteArcSize=1;fontSize=14;fontColor=#212121;" parent="1" vertex="1">
          <mxGeometry x="530" y="160" width="120" height="40" as="geometry" />
        </mxCell>
        <mxCell id="nWp-eLL03zswu_rfTDF6-6" value="&lt;font style=&quot;font-size: 14px;&quot;&gt;Портал администратора&lt;/font&gt;" style="rounded=1;whiteSpace=wrap;html=1;fontFamily=VK Sans Display;strokeColor=none;arcsize=12;fillColor=#F6F7F9;spacing=0;spacingTop=12;spacingBottom=12;arcSize=12;absoluteArcSize=1;fontSize=14;fontColor=#212121;" parent="1" vertex="1">
          <mxGeometry x="690" y="160" width="200" height="40" as="geometry" />
        </mxCell>
        <mxCell id="nWp-eLL03zswu_rfTDF6-7" value="&lt;font style=&quot;font-size: 14px;&quot;&gt;API&lt;/font&gt;" style="rounded=1;whiteSpace=wrap;html=1;fontFamily=VK Sans Display;strokeColor=none;arcsize=12;fillColor=#F6F7F9;spacing=0;spacingTop=12;spacingBottom=12;arcSize=12;absoluteArcSize=1;fontSize=14;fontColor=#212121;" parent="1" vertex="1">
          <mxGeometry x="40" y="240" width="940" height="40" as="geometry" />
        </mxCell>
        <mxCell id="nWp-eLL03zswu_rfTDF6-8" value="&lt;font style=&quot;font-size: 12px;&quot;&gt;IaaS&lt;/font&gt;" style="rounded=1;whiteSpace=wrap;html=1;fontFamily=VK Sans Display;strokeColor=none;arcsize=12;fillColor=#F6F7F9;spacing=0;spacingTop=12;spacingBottom=12;arcSize=12;absoluteArcSize=1;verticalAlign=top;fontStyle=1;fontSize=14;fontColor=#212121;" parent="1" vertex="1">
          <mxGeometry x="40" y="320" width="230" height="500" as="geometry" />
        </mxCell>
        <mxCell id="nWp-eLL03zswu_rfTDF6-9" value="&lt;font style=&quot;font-size: 12px;&quot;&gt;PaaS&lt;/font&gt;" style="rounded=1;whiteSpace=wrap;html=1;fontFamily=VK Sans Display;strokeColor=none;arcsize=12;fillColor=#F6F7F9;spacing=0;spacingTop=12;spacingBottom=12;arcSize=12;absoluteArcSize=1;verticalAlign=top;fontStyle=1;fontSize=14;fontColor=#212121;" parent="1" vertex="1">
          <mxGeometry x="290" y="320" width="440" height="276" as="geometry" />
        </mxCell>
        <mxCell id="nWp-eLL03zswu_rfTDF6-10" value="&lt;font style=&quot;font-size: 12px;&quot;&gt;Cloud Servers&lt;/font&gt;" style="rounded=1;whiteSpace=wrap;html=1;fontFamily=VK Sans Display;strokeColor=#E3E8F2;arcsize=12;fillColor=#FFF;spacing=12;verticalAlign=top;spacingTop=0;strokeWidth=4;spacingLeft=0;spacingBottom=0;fontStyle=1;arcSize=12;absoluteArcSize=1;fontSize=14;fontColor=#212121;" parent="1" vertex="1">
          <mxGeometry x="60" y="369" width="190" height="170" as="geometry" />
        </mxCell>
        <mxCell id="nWp-eLL03zswu_rfTDF6-11" value="&lt;font&gt;Cloud Network&lt;/font&gt;" style="rounded=1;whiteSpace=wrap;html=1;fontFamily=VK Sans Display;strokeColor=#E3E8F2;arcsize=12;fillColor=#FFF;spacing=12;verticalAlign=top;spacingTop=0;strokeWidth=4;spacingLeft=0;spacingBottom=0;fontStyle=1;arcSize=12;absoluteArcSize=1;fontColor=#212121;" parent="1" vertex="1">
          <mxGeometry x="60" y="565" width="190" height="175" as="geometry" />
        </mxCell>
        <mxCell id="nWp-eLL03zswu_rfTDF6-12" value="&lt;font&gt;Cloud Containers&lt;/font&gt;" style="rounded=1;whiteSpace=wrap;html=1;fontFamily=VK Sans Display;strokeColor=#E3E8F2;arcsize=12;fillColor=#FFF;spacing=12;verticalAlign=top;spacingTop=0;strokeWidth=4;spacingLeft=0;spacingBottom=0;fontStyle=1;arcSize=12;absoluteArcSize=1;fontColor=#212121;" parent="1" vertex="1">
          <mxGeometry x="310" y="369" width="188" height="209" as="geometry" />
        </mxCell>
        <mxCell id="nWp-eLL03zswu_rfTDF6-13" value="&lt;font&gt;Cloud Database&lt;/font&gt;" style="rounded=1;whiteSpace=wrap;html=1;fontFamily=VK Sans Display;strokeColor=#E3E8F2;arcsize=12;fillColor=#FFF;spacing=12;verticalAlign=top;spacingTop=0;strokeWidth=4;spacingLeft=0;spacingBottom=0;fontStyle=1;arcSize=12;absoluteArcSize=1;fontColor=#212121;" parent="1" vertex="1">
          <mxGeometry x="520" y="369" width="190" height="209" as="geometry" />
        </mxCell>
        <mxCell id="nWp-eLL03zswu_rfTDF6-14" value="&lt;font&gt;Виртуальные машины&lt;/font&gt;" style="rounded=1;whiteSpace=wrap;html=1;fontFamily=VK Sans Display;strokeColor=none;arcsize=12;fillColor=#F6F7F9;spacing=0;spacingTop=12;spacingBottom=12;arcSize=12;absoluteArcSize=1;fontSize=14;fontColor=#212121;" parent="1" vertex="1">
          <mxGeometry x="70" y="411" width="170" height="30" as="geometry" />
        </mxCell>
        <mxCell id="nWp-eLL03zswu_rfTDF6-15" value="&lt;font&gt;Образы&lt;/font&gt;" style="rounded=1;whiteSpace=wrap;html=1;fontFamily=VK Sans Display;strokeColor=none;arcsize=12;fillColor=#F6F7F9;spacing=0;spacingTop=12;spacingBottom=12;arcSize=12;absoluteArcSize=1;fontSize=14;fontColor=#212121;" parent="1" vertex="1">
          <mxGeometry x="160" y="453" width="80" height="30" as="geometry" />
        </mxCell>
        <mxCell id="nWp-eLL03zswu_rfTDF6-16" value="&lt;font&gt;Диски&lt;/font&gt;" style="rounded=1;whiteSpace=wrap;html=1;fontFamily=VK Sans Display;strokeColor=none;arcsize=12;fillColor=#F6F7F9;spacing=0;spacingTop=12;spacingBottom=12;arcSize=12;absoluteArcSize=1;fontSize=14;fontColor=#212121;" parent="1" vertex="1">
          <mxGeometry x="70" y="453" width="80" height="30" as="geometry" />
        </mxCell>
        <mxCell id="nWp-eLL03zswu_rfTDF6-17" value="&lt;font&gt;Файловые хранилища&lt;/font&gt;" style="rounded=1;whiteSpace=wrap;html=1;fontFamily=VK Sans Display;strokeColor=none;arcsize=12;fillColor=#F6F7F9;spacing=0;spacingTop=12;spacingBottom=12;arcSize=12;absoluteArcSize=1;fontSize=14;fontColor=#212121;" parent="1" vertex="1">
          <mxGeometry x="70" y="493" width="170" height="30" as="geometry" />
        </mxCell>
        <mxCell id="nWp-eLL03zswu_rfTDF6-18" value="&lt;font&gt;Сети&lt;/font&gt;" style="rounded=1;whiteSpace=wrap;html=1;fontFamily=VK Sans Display;strokeColor=none;arcsize=12;fillColor=#F6F7F9;spacing=0;spacingTop=12;spacingBottom=12;arcSize=12;absoluteArcSize=1;fontSize=14;fontColor=#212121;" parent="1" vertex="1">
          <mxGeometry x="70" y="609" width="80" height="30" as="geometry" />
        </mxCell>
        <mxCell id="nWp-eLL03zswu_rfTDF6-19" value="&lt;font&gt;Маршрутизаторы&lt;/font&gt;" style="rounded=1;whiteSpace=wrap;html=1;fontFamily=VK Sans Display;strokeColor=none;arcsize=12;fillColor=#F6F7F9;spacing=0;spacingTop=12;spacingBottom=12;arcSize=12;absoluteArcSize=1;fontSize=14;fontColor=#212121;" parent="1" vertex="1">
          <mxGeometry x="70" y="649" width="170" height="30" as="geometry" />
        </mxCell>
        <mxCell id="nWp-eLL03zswu_rfTDF6-20" value="&lt;font style=&quot;font-size: 14px;&quot;&gt;&lt;span style=&quot;font-size: 14px;&quot;&gt;Load Balancing&lt;/span&gt;&lt;/font&gt;" style="rounded=1;whiteSpace=wrap;html=1;fontFamily=VK Sans Display;strokeColor=none;arcsize=12;fillColor=#FFFFFF;spacing=0;spacingTop=12;spacingBottom=12;arcSize=12;absoluteArcSize=1;fontSize=14;fontColor=#212121;" parent="1" vertex="1">
          <mxGeometry x="60" y="760" width="190" height="40" as="geometry" />
        </mxCell>
        <mxCell id="nWp-eLL03zswu_rfTDF6-21" value="&lt;font&gt;DNS&lt;/font&gt;" style="rounded=1;whiteSpace=wrap;html=1;fontFamily=VK Sans Display;strokeColor=none;arcsize=12;fillColor=#F6F7F9;spacing=0;spacingTop=12;spacingBottom=12;arcSize=12;absoluteArcSize=1;fontSize=14;fontColor=#212121;" parent="1" vertex="1">
          <mxGeometry x="160" y="609" width="80" height="30" as="geometry" />
        </mxCell>
        <mxCell id="nWp-eLL03zswu_rfTDF6-22" value="&lt;font&gt;Группы безопасности&lt;/font&gt;" style="rounded=1;whiteSpace=wrap;html=1;fontFamily=VK Sans Display;strokeColor=none;arcsize=12;fillColor=#F6F7F9;spacing=0;spacingTop=12;spacingBottom=12;arcSize=12;absoluteArcSize=1;fontSize=14;fontColor=#212121;" parent="1" vertex="1">
          <mxGeometry x="70" y="690" width="170" height="30" as="geometry" />
        </mxCell>
        <mxCell id="nWp-eLL03zswu_rfTDF6-23" value="&lt;font&gt;MySQL&lt;/font&gt;" style="rounded=1;whiteSpace=wrap;html=1;fontFamily=VK Sans Display;strokeColor=none;arcsize=12;fillColor=#F6F7F9;spacing=0;spacingTop=12;spacingBottom=12;arcSize=12;absoluteArcSize=1;fontSize=14;fontColor=#212121;" parent="1" vertex="1">
          <mxGeometry x="533" y="411" width="78" height="30" as="geometry" />
        </mxCell>
        <mxCell id="nWp-eLL03zswu_rfTDF6-24" value="&lt;font&gt;Автомасштабирование&lt;/font&gt;" style="rounded=1;whiteSpace=wrap;html=1;fontFamily=VK Sans Display;strokeColor=none;arcsize=12;fillColor=#F6F7F9;spacing=0;spacingTop=12;spacingBottom=12;arcSize=12;absoluteArcSize=1;fontSize=14;fontColor=#212121;" parent="1" vertex="1">
          <mxGeometry x="322" y="451" width="164" height="30" as="geometry" />
        </mxCell>
        <mxCell id="nWp-eLL03zswu_rfTDF6-25" value="&lt;font&gt;Docker Registry&lt;/font&gt;" style="rounded=1;whiteSpace=wrap;html=1;fontFamily=VK Sans Display;strokeColor=none;arcsize=12;fillColor=#F6F7F9;spacing=0;spacingTop=12;spacingBottom=12;arcSize=12;absoluteArcSize=1;fontSize=14;fontColor=#212121;" parent="1" vertex="1">
          <mxGeometry x="322" y="490" width="164" height="30" as="geometry" />
        </mxCell>
        <mxCell id="nWp-eLL03zswu_rfTDF6-26" value="&lt;font&gt;Addons&lt;/font&gt;" style="rounded=1;whiteSpace=wrap;html=1;fontFamily=VK Sans Display;strokeColor=none;arcsize=12;fillColor=#F6F7F9;spacing=0;spacingTop=12;spacingBottom=12;arcSize=12;absoluteArcSize=1;fontSize=14;fontColor=#212121;" parent="1" vertex="1">
          <mxGeometry x="322" y="530" width="164" height="30" as="geometry" />
        </mxCell>
        <mxCell id="nWp-eLL03zswu_rfTDF6-27" value="&lt;font&gt;PostgreSQL&lt;/font&gt;" style="rounded=1;whiteSpace=wrap;html=1;fontFamily=VK Sans Display;strokeColor=none;arcsize=12;fillColor=#F6F7F9;spacing=0;spacingTop=12;spacingBottom=12;arcSize=12;absoluteArcSize=1;fontSize=14;fontColor=#212121;" parent="1" vertex="1">
          <mxGeometry x="533" y="490" width="164" height="30" as="geometry" />
        </mxCell>
        <mxCell id="nWp-eLL03zswu_rfTDF6-28" value="&lt;font&gt;Kubernetes&lt;/font&gt;" style="rounded=1;whiteSpace=wrap;html=1;fontFamily=VK Sans Display;strokeColor=none;arcsize=12;fillColor=#F6F7F9;spacing=0;spacingTop=12;spacingBottom=12;arcSize=12;absoluteArcSize=1;fontSize=14;fontColor=#212121;" parent="1" vertex="1">
          <mxGeometry x="322" y="411" width="164" height="30" as="geometry" />
        </mxCell>
        <mxCell id="nWp-eLL03zswu_rfTDF6-29" value="&lt;font&gt;Redis&lt;/font&gt;" style="rounded=1;whiteSpace=wrap;html=1;fontFamily=VK Sans Display;strokeColor=none;arcsize=12;fillColor=#F6F7F9;spacing=0;spacingTop=12;spacingBottom=12;arcSize=12;absoluteArcSize=1;fontSize=14;fontColor=#212121;" parent="1" vertex="1">
          <mxGeometry x="619" y="411" width="78" height="30" as="geometry" />
        </mxCell>
        <mxCell id="nWp-eLL03zswu_rfTDF6-30" value="&lt;font&gt;ClickHouse&lt;/font&gt;" style="rounded=1;whiteSpace=wrap;html=1;fontFamily=VK Sans Display;strokeColor=none;arcsize=12;fillColor=#F6F7F9;spacing=0;spacingTop=12;spacingBottom=12;arcSize=12;absoluteArcSize=1;fontSize=14;fontColor=#212121;" parent="1" vertex="1">
          <mxGeometry x="533" y="451" width="164" height="30" as="geometry" />
        </mxCell>
        <mxCell id="nWp-eLL03zswu_rfTDF6-31" value="Магазин приложений" style="rounded=1;whiteSpace=wrap;html=1;fontFamily=VK Sans Display;strokeColor=#E3E8F2;arcsize=12;fillColor=#FFF;spacing=12;verticalAlign=top;spacingTop=0;strokeWidth=4;spacingLeft=0;spacingBottom=0;fontStyle=1;arcSize=12;absoluteArcSize=1;fontColor=#212121;" parent="1" vertex="1">
          <mxGeometry x="310" y="670" width="400" height="130" as="geometry" />
        </mxCell>
        <mxCell id="nWp-eLL03zswu_rfTDF6-32" value="&lt;font&gt;Image-based сервисы&lt;/font&gt;" style="rounded=1;whiteSpace=wrap;html=1;fontFamily=VK Sans Display;strokeColor=none;arcsize=12;fillColor=#F6F7F9;spacing=0;spacingTop=12;spacingBottom=12;arcSize=12;absoluteArcSize=1;fontSize=14;fontColor=#212121;" parent="1" vertex="1">
          <mxGeometry x="328" y="720" width="170" height="60" as="geometry" />
        </mxCell>
        <mxCell id="nWp-eLL03zswu_rfTDF6-33" value="&lt;font&gt;Централизованные мультитенантные сервисы&lt;/font&gt;" style="rounded=1;whiteSpace=wrap;html=1;fontFamily=VK Sans Display;strokeColor=none;arcsize=12;fillColor=#F6F7F9;spacing=0;spacingTop=12;spacingBottom=12;arcSize=12;absoluteArcSize=1;fontSize=14;fontColor=#212121;" parent="1" vertex="1">
          <mxGeometry x="520" y="720" width="170" height="59" as="geometry" />
        </mxCell>
        <mxCell id="nWp-eLL03zswu_rfTDF6-34" value="" style="endArrow=none;html=1;fontFamily=VK Sans Display;fontColor=#212121;rounded=1;strokeColor=#7C8A9A;endFill=0;arcsize=8;startArrow=open;startFill=0;strokeWidth=2;arcSize=8;edgeStyle=orthogonalEdgeStyle;exitX=0.75;exitY=0;exitDx=0;exitDy=0;" parent="1" source="nWp-eLL03zswu_rfTDF6-3" edge="1">
          <mxGeometry width="50" height="50" relative="1" as="geometry">
            <mxPoint x="1010" y="180" as="sourcePoint" />
            <mxPoint x="790" y="100" as="targetPoint" />
            <Array as="points">
              <mxPoint x="460" y="130" />
              <mxPoint x="790" y="130" />
            </Array>
          </mxGeometry>
        </mxCell>
        <mxCell id="nWp-eLL03zswu_rfTDF6-35" value="" style="endArrow=none;html=1;fontFamily=VK Sans Display;fontColor=#212121;rounded=1;strokeColor=#7C8A9A;endFill=0;arcsize=8;startArrow=open;startFill=0;strokeWidth=2;arcSize=8;edgeStyle=orthogonalEdgeStyle;exitX=0.75;exitY=0;exitDx=0;exitDy=0;" parent="1" source="nWp-eLL03zswu_rfTDF6-5" edge="1">
          <mxGeometry width="50" height="50" relative="1" as="geometry">
            <mxPoint x="440" y="170" as="sourcePoint" />
            <mxPoint x="790" y="100" as="targetPoint" />
            <Array as="points">
              <mxPoint x="620" y="130" />
              <mxPoint x="790" y="130" />
            </Array>
          </mxGeometry>
        </mxCell>
        <mxCell id="nWp-eLL03zswu_rfTDF6-36" value="" style="endArrow=none;html=1;fontFamily=VK Sans Display;fontColor=#212121;rounded=1;strokeColor=#7C8A9A;endFill=0;arcsize=8;startArrow=open;startFill=0;strokeWidth=2;arcSize=8;edgeStyle=orthogonalEdgeStyle;" parent="1" source="nWp-eLL03zswu_rfTDF6-6" edge="1">
          <mxGeometry width="50" height="50" relative="1" as="geometry">
            <mxPoint x="450" y="180" as="sourcePoint" />
            <mxPoint x="790" y="100" as="targetPoint" />
          </mxGeometry>
        </mxCell>
        <mxCell id="nWp-eLL03zswu_rfTDF6-37" value="" style="endArrow=none;html=1;fontFamily=VK Sans Display;fontColor=#212121;rounded=1;strokeColor=#7C8A9A;endFill=0;arcsize=8;startArrow=open;startFill=0;strokeWidth=2;arcSize=8;edgeStyle=orthogonalEdgeStyle;" parent="1" source="nWp-eLL03zswu_rfTDF6-4" edge="1">
          <mxGeometry width="50" height="50" relative="1" as="geometry">
            <mxPoint x="800" y="170" as="sourcePoint" />
            <mxPoint x="230" y="100" as="targetPoint" />
          </mxGeometry>
        </mxCell>
        <mxCell id="nWp-eLL03zswu_rfTDF6-38" value="" style="endArrow=none;html=1;fontFamily=VK Sans Display;fontColor=#212121;rounded=1;strokeColor=#7C8A9A;endFill=0;arcsize=8;startArrow=open;startFill=0;strokeWidth=2;arcSize=8;edgeStyle=orthogonalEdgeStyle;exitX=0.25;exitY=0;exitDx=0;exitDy=0;" parent="1" source="nWp-eLL03zswu_rfTDF6-3" edge="1">
          <mxGeometry width="50" height="50" relative="1" as="geometry">
            <mxPoint x="240" y="170" as="sourcePoint" />
            <mxPoint x="230" y="100" as="targetPoint" />
            <Array as="points">
              <mxPoint x="400" y="120" />
              <mxPoint x="230" y="120" />
            </Array>
          </mxGeometry>
        </mxCell>
        <mxCell id="nWp-eLL03zswu_rfTDF6-39" value="" style="endArrow=none;html=1;fontFamily=VK Sans Display;fontColor=#212121;rounded=1;strokeColor=#7C8A9A;endFill=0;arcsize=8;startArrow=open;startFill=0;strokeWidth=2;arcSize=8;edgeStyle=orthogonalEdgeStyle;exitX=0.25;exitY=0;exitDx=0;exitDy=0;" parent="1" source="nWp-eLL03zswu_rfTDF6-5" edge="1">
          <mxGeometry width="50" height="50" relative="1" as="geometry">
            <mxPoint x="250" y="180" as="sourcePoint" />
            <mxPoint x="230" y="100" as="targetPoint" />
            <Array as="points">
              <mxPoint x="560" y="120" />
              <mxPoint x="230" y="120" />
            </Array>
          </mxGeometry>
        </mxCell>
        <mxCell id="nWp-eLL03zswu_rfTDF6-40" value="" style="endArrow=open;html=1;fontFamily=VK Sans Display;fontColor=#212121;rounded=1;strokeColor=#7C8A9A;endFill=0;arcsize=8;startArrow=open;startFill=0;strokeWidth=2;arcSize=8;" parent="1" target="nWp-eLL03zswu_rfTDF6-4" edge="1">
          <mxGeometry width="50" height="50" relative="1" as="geometry">
            <mxPoint x="230" y="240" as="sourcePoint" />
            <mxPoint x="260" y="106" as="targetPoint" />
          </mxGeometry>
        </mxCell>
        <mxCell id="nWp-eLL03zswu_rfTDF6-41" value="" style="endArrow=open;html=1;fontFamily=VK Sans Display;fontColor=#212121;rounded=1;strokeColor=#7C8A9A;endFill=0;arcsize=8;startArrow=open;startFill=0;strokeWidth=2;arcSize=8;" parent="1" target="nWp-eLL03zswu_rfTDF6-3" edge="1">
          <mxGeometry width="50" height="50" relative="1" as="geometry">
            <mxPoint x="430" y="240" as="sourcePoint" />
            <mxPoint x="240" y="210" as="targetPoint" />
          </mxGeometry>
        </mxCell>
        <mxCell id="nWp-eLL03zswu_rfTDF6-42" value="" style="endArrow=open;html=1;fontFamily=VK Sans Display;fontColor=#212121;rounded=1;strokeColor=#7C8A9A;endFill=0;arcsize=8;startArrow=open;startFill=0;strokeWidth=2;arcSize=8;entryX=0.5;entryY=1;entryDx=0;entryDy=0;" parent="1" target="nWp-eLL03zswu_rfTDF6-5" edge="1">
          <mxGeometry width="50" height="50" relative="1" as="geometry">
            <mxPoint x="590" y="240" as="sourcePoint" />
            <mxPoint x="440" y="210" as="targetPoint" />
          </mxGeometry>
        </mxCell>
        <mxCell id="nWp-eLL03zswu_rfTDF6-43" value="" style="endArrow=open;html=1;fontFamily=VK Sans Display;fontColor=#212121;rounded=1;strokeColor=#7C8A9A;endFill=0;arcsize=8;startArrow=open;startFill=0;strokeWidth=2;arcSize=8;entryX=0.5;entryY=1;entryDx=0;entryDy=0;" parent="1" target="nWp-eLL03zswu_rfTDF6-6" edge="1">
          <mxGeometry width="50" height="50" relative="1" as="geometry">
            <mxPoint x="790" y="240" as="sourcePoint" />
            <mxPoint x="600" y="210" as="targetPoint" />
          </mxGeometry>
        </mxCell>
        <mxCell id="nWp-eLL03zswu_rfTDF6-44" value="" style="endArrow=open;html=1;fontFamily=VK Sans Display;fontColor=#212121;rounded=1;strokeColor=#7C8A9A;endFill=0;arcsize=8;startArrow=open;startFill=0;strokeWidth=2;arcSize=8;" parent="1" edge="1">
          <mxGeometry width="50" height="50" relative="1" as="geometry">
            <mxPoint x="154" y="320" as="sourcePoint" />
            <mxPoint x="154" y="280" as="targetPoint" />
          </mxGeometry>
        </mxCell>
        <mxCell id="nWp-eLL03zswu_rfTDF6-45" value="" style="endArrow=open;html=1;fontFamily=VK Sans Display;fontColor=#212121;rounded=1;strokeColor=#7C8A9A;endFill=0;arcsize=8;startArrow=open;startFill=0;strokeWidth=2;arcSize=8;exitX=0.167;exitY=-0.039;exitDx=0;exitDy=0;exitPerimeter=0;" parent="1" edge="1">
          <mxGeometry width="50" height="50" relative="1" as="geometry">
            <mxPoint x="864.83" y="320" as="sourcePoint" />
            <mxPoint x="864.83" y="280" as="targetPoint" />
          </mxGeometry>
        </mxCell>
        <mxCell id="nWp-eLL03zswu_rfTDF6-46" value="" style="endArrow=open;html=1;fontFamily=VK Sans Display;fontColor=#212121;rounded=1;strokeColor=#7C8A9A;endFill=0;arcsize=8;startArrow=open;startFill=0;strokeWidth=2;arcSize=8;" parent="1" edge="1">
          <mxGeometry width="50" height="50" relative="1" as="geometry">
            <mxPoint x="510" y="320" as="sourcePoint" />
            <mxPoint x="510" y="280" as="targetPoint" />
          </mxGeometry>
        </mxCell>
        <mxCell id="nWp-eLL03zswu_rfTDF6-47" value="Common &amp;amp; Security Services" style="rounded=1;whiteSpace=wrap;html=1;fontFamily=VK Sans Display;strokeColor=none;arcsize=12;fillColor=#F6F7F9;spacing=10;verticalAlign=top;spacingTop=0;spacingLeft=0;spacingRight=0;fontStyle=1;arcSize=12;absoluteArcSize=1;fontColor=#212121;" parent="1" vertex="1">
          <mxGeometry x="750" y="320" width="230" height="500" as="geometry" />
        </mxCell>
        <mxCell id="nWp-eLL03zswu_rfTDF6-48" value="IAM" style="rounded=1;whiteSpace=wrap;html=1;fontFamily=VK Sans Display;strokeColor=none;arcsize=12;fillColor=#FFF;spacing=0;spacingTop=12;spacingBottom=12;arcSize=12;absoluteArcSize=1;fontSize=14;fontColor=#212121;" parent="1" vertex="1">
          <mxGeometry x="770.07" y="369" width="190" height="30" as="geometry" />
        </mxCell>
        <mxCell id="nWp-eLL03zswu_rfTDF6-49" value="Keycloak" style="rounded=1;whiteSpace=wrap;html=1;fontFamily=VK Sans Display;strokeColor=none;arcsize=12;fillColor=#FFF;spacing=0;spacingTop=12;spacingBottom=12;arcSize=12;absoluteArcSize=1;fontSize=14;fontColor=#212121;" parent="1" vertex="1">
          <mxGeometry x="770.07" y="409" width="190" height="30" as="geometry" />
        </mxCell>
        <mxCell id="nWp-eLL03zswu_rfTDF6-50" value="Резервное копирование" style="rounded=1;whiteSpace=wrap;html=1;fontFamily=VK Sans Display;strokeColor=none;arcsize=12;fillColor=#FFF;spacing=0;spacingTop=12;spacingBottom=12;arcSize=12;absoluteArcSize=1;fontSize=14;fontColor=#212121;" parent="1" vertex="1">
          <mxGeometry x="769.32" y="530" width="190" height="30" as="geometry" />
        </mxCell>
        <mxCell id="nWp-eLL03zswu_rfTDF6-51" value="Cloud Monitoring" style="rounded=1;whiteSpace=wrap;html=1;fontFamily=VK Sans Display;strokeColor=none;arcsize=12;fillColor=#FFF;spacing=0;spacingTop=12;spacingBottom=12;arcSize=12;absoluteArcSize=1;fontSize=14;fontColor=#212121;" parent="1" vertex="1">
          <mxGeometry x="769.32" y="570" width="190" height="30" as="geometry" />
        </mxCell>
        <mxCell id="nWp-eLL03zswu_rfTDF6-52" value="Cloud Audit" style="rounded=1;whiteSpace=wrap;html=1;fontFamily=VK Sans Display;strokeColor=none;arcsize=12;fillColor=#FFF;spacing=0;spacingTop=12;spacingBottom=12;arcSize=12;absoluteArcSize=1;fontSize=14;fontColor=#212121;" parent="1" vertex="1">
          <mxGeometry x="769.32" y="610" width="190" height="30" as="geometry" />
        </mxCell>
        <mxCell id="nWp-eLL03zswu_rfTDF6-53" value="Пользователь" style="shape=image;verticalLabelPosition=bottom;labelBackgroundColor=default;verticalAlign=top;aspect=fixed;imageAspect=0;image=data:image/svg+xml,PHN2ZyB4bWxucz0iaHR0cDovL3d3dy53My5vcmcvMjAwMC9zdmciIGZpbGw9Im5vbmUiIHZpZXdCb3g9IjAgMCAxOSAyMSIgaGVpZ2h0PSIyMSIgd2lkdGg9IjE5Ij4mI3hhOzxwYXRoIGZpbGw9IiMwMDc3RkYiIGQ9Ik0xMi41IDUuNUMxMi41IDMuNTY2MDMgMTAuOTM0IDIgOSAyQzcuMDY2MDMgMiA1LjUgMy41NjYwMyA1LjUgNS41QzUuNSA3LjQzMzk3IDcuMDY2MDMgOSA5IDlDMTAuOTM0IDkgMTIuNSA3LjQzMzk3IDEyLjUgNS41Wk0xNC41IDUuNUMxNC41IDguNTM4NTMgMTIuMDM4NSAxMSA5IDExQzUuOTYxNDcgMTEgMy41IDguNTM4NTMgMy41IDUuNUMzLjUgMi40NjE0NyA1Ljk2MTQ3IDAgOSAwQzEyLjAzODUgMCAxNC41IDIuNDYxNDcgMTQuNSA1LjVaTTIgMTcuNjQyOUMyIDE4LjU4NjIgMS45MTk4NyAxOC41IDIuNDU1ODggMTguNUgxNi4wNDQxQzE2LjU4MDEgMTguNSAxNi41IDE4LjU4NjIgMTYuNSAxNy42NDI5QzE2LjUgMTUuMzU0NyAxMy4xOTYgMTQgOS4yNSAxNEM1LjMwNDAyIDE0IDIgMTUuMzU0NyAyIDE3LjY0MjlaTTAgMTcuNjQyOUMwIDEzLjc2MjYgNC4yOTg5MiAxMiA5LjI1IDEyQzE0LjIwMTEgMTIgMTguNSAxMy43NjI2IDE4LjUgMTcuNjQyOUMxOC41IDE5LjY1OTMgMTcuNzE4OSAyMC41IDE2LjA0NDEgMjAuNUgyLjQ1NTg4QzAuNzgxMTA5IDIwLjUgMCAxOS42NTkzIDAgMTcuNjQyOVoiLz4mI3hhOzwvc3ZnPg==;fontFamily=VK Sans Display;fontSize=14;fontColor=#212121;" parent="1" vertex="1">
          <mxGeometry x="211" y="31" width="38" height="42" as="geometry" />
        </mxCell>
        <mxCell id="nWp-eLL03zswu_rfTDF6-54" value="Администратор" style="shape=image;verticalLabelPosition=bottom;labelBackgroundColor=default;verticalAlign=top;aspect=fixed;imageAspect=0;image=data:image/svg+xml,PHN2ZyB4bWxucz0iaHR0cDovL3d3dy53My5vcmcvMjAwMC9zdmciIGZpbGw9Im5vbmUiIHZpZXdCb3g9IjAgMCAxOSAyMSIgaGVpZ2h0PSIyMSIgd2lkdGg9IjE5Ij4mI3hhOzxwYXRoIGZpbGw9IiMwMDc3RkYiIGQ9Ik0xMi41IDUuNUMxMi41IDMuNTY2MDMgMTAuOTM0IDIgOSAyQzcuMDY2MDMgMiA1LjUgMy41NjYwMyA1LjUgNS41QzUuNSA3LjQzMzk3IDcuMDY2MDMgOSA5IDlDMTAuOTM0IDkgMTIuNSA3LjQzMzk3IDEyLjUgNS41Wk0xNC41IDUuNUMxNC41IDguNTM4NTMgMTIuMDM4NSAxMSA5IDExQzUuOTYxNDcgMTEgMy41IDguNTM4NTMgMy41IDUuNUMzLjUgMi40NjE0NyA1Ljk2MTQ3IDAgOSAwQzEyLjAzODUgMCAxNC41IDIuNDYxNDcgMTQuNSA1LjVaTTIgMTcuNjQyOUMyIDE4LjU4NjIgMS45MTk4NyAxOC41IDIuNDU1ODggMTguNUgxNi4wNDQxQzE2LjU4MDEgMTguNSAxNi41IDE4LjU4NjIgMTYuNSAxNy42NDI5QzE2LjUgMTUuMzU0NyAxMy4xOTYgMTQgOS4yNSAxNEM1LjMwNDAyIDE0IDIgMTUuMzU0NyAyIDE3LjY0MjlaTTAgMTcuNjQyOUMwIDEzLjc2MjYgNC4yOTg5MiAxMiA5LjI1IDEyQzE0LjIwMTEgMTIgMTguNSAxMy43NjI2IDE4LjUgMTcuNjQyOUMxOC41IDE5LjY1OTMgMTcuNzE4OSAyMC41IDE2LjA0NDEgMjAuNUgyLjQ1NTg4QzAuNzgxMTA5IDIwLjUgMCAxOS42NTkzIDAgMTcuNjQyOVoiLz4mI3hhOzwvc3ZnPg==;fontFamily=VK Sans Display;fontSize=14;fontColor=#212121;" parent="1" vertex="1">
          <mxGeometry x="771" y="31" width="38" height="42" as="geometry" />
        </mxCell>
        <mxCell id="nWp-eLL03zswu_rfTDF6-55" value="Cloud Logging" style="rounded=1;whiteSpace=wrap;html=1;fontFamily=VK Sans Display;strokeColor=none;arcsize=12;fillColor=#FFF;spacing=0;spacingTop=12;spacingBottom=12;arcSize=12;absoluteArcSize=1;fontSize=14;fontColor=#212121;" parent="1" vertex="1">
          <mxGeometry x="769.32" y="650" width="190" height="30" as="geometry" />
        </mxCell>
        <mxCell id="nWp-eLL03zswu_rfTDF6-56" value="Cloud Alerting" style="rounded=1;whiteSpace=wrap;html=1;fontFamily=VK Sans Display;strokeColor=none;arcsize=12;fillColor=#FFF;spacing=0;spacingTop=12;spacingBottom=12;arcSize=12;absoluteArcSize=1;fontSize=14;fontColor=#212121;" parent="1" vertex="1">
          <mxGeometry x="769.32" y="690" width="190" height="30" as="geometry" />
        </mxCell>
        <mxCell id="nWp-eLL03zswu_rfTDF6-57" value="Postgres Pro" style="rounded=1;whiteSpace=wrap;html=1;fontFamily=VK Sans Display;strokeColor=none;arcsize=12;fillColor=#F6F7F9;spacing=0;spacingTop=12;spacingBottom=12;arcSize=12;absoluteArcSize=1;fontSize=14;fontColor=#212121;" parent="1" vertex="1">
          <mxGeometry x="533" y="530" width="164" height="30" as="geometry" />
        </mxCell>
        <mxCell id="nWp-eLL03zswu_rfTDF6-58" value="Мониторинг" style="rounded=1;whiteSpace=wrap;html=1;fontFamily=VK Sans Display;strokeColor=none;arcsize=12;fillColor=#FFF;spacing=0;spacingTop=12;spacingBottom=12;arcSize=12;absoluteArcSize=1;fontSize=14;fontColor=#212121;" parent="1" vertex="1">
          <mxGeometry x="769.32" y="730" width="190" height="30" as="geometry" />
        </mxCell>
        <mxCell id="nWp-eLL03zswu_rfTDF6-59" value="Логирование" style="rounded=1;whiteSpace=wrap;html=1;fontFamily=VK Sans Display;strokeColor=none;arcsize=12;fillColor=#FFF;spacing=0;spacingTop=12;spacingBottom=12;arcSize=12;absoluteArcSize=1;fontSize=14;fontColor=#212121;" parent="1" vertex="1">
          <mxGeometry x="769.32" y="770" width="190" height="30" as="geometry" />
        </mxCell>
        <mxCell id="nWp-eLL03zswu_rfTDF6-60" value="Биллинг" style="rounded=1;whiteSpace=wrap;html=1;fontFamily=VK Sans Display;strokeColor=none;arcsize=12;fillColor=#FFF;spacing=0;spacingTop=12;spacingBottom=12;arcSize=12;absoluteArcSize=1;fontSize=14;fontColor=#212121;" parent="1" vertex="1">
          <mxGeometry x="769.32" y="449" width="190" height="30" as="geometry" />
        </mxCell>
        <mxCell id="nWp-eLL03zswu_rfTDF6-61" value="Квоты" style="rounded=1;whiteSpace=wrap;html=1;fontFamily=VK Sans Display;strokeColor=none;arcsize=12;fillColor=#FFF;spacing=0;spacingTop=12;spacingBottom=12;arcSize=12;absoluteArcSize=1;fontSize=14;fontColor=#212121;" parent="1" vertex="1">
          <mxGeometry x="770.07" y="490" width="190" height="30" as="geometry" />
        </mxCell>
      </root>
    </mxGraphModel>
  </diagram>
  <diagram id="AOfK0k0y15Gz7UN3RNix" name="arch_general_architecture">
    <mxGraphModel dx="1420" dy="856" grid="1" gridSize="10" guides="1" tooltips="1" connect="1" arrows="1" fold="1" page="1" pageScale="1" pageWidth="827" pageHeight="1169" math="0" shadow="0">
      <root>
        <mxCell id="0" />
        <mxCell id="1" parent="0" />
        <mxCell id="93CEhN1H_u9ybN63A4aO-1" value="" style="rounded=1;whiteSpace=wrap;html=1;fontFamily=VK Sans Display;strokeColor=none;arcsize=12;fillColor=#FFFFFF;spacing=0;spacingTop=12;spacingBottom=12;arcSize=12;absoluteArcSize=1;fontSize=14;fontColor=#212121;" vertex="1" parent="1">
          <mxGeometry x="29" y="20" width="961" height="810" as="geometry" />
        </mxCell>
        <mxCell id="93CEhN1H_u9ybN63A4aO-2" value="&lt;font style=&quot;font-size: 12px;&quot;&gt;SaaS&lt;/font&gt;" style="rounded=1;whiteSpace=wrap;html=1;fontFamily=VK Sans Display;strokeColor=none;arcsize=12;fillColor=#F6F7F9;spacing=0;spacingTop=12;spacingBottom=12;arcSize=12;absoluteArcSize=1;verticalAlign=top;fontStyle=1;fontSize=14;fontColor=#212121;" vertex="1" parent="1">
          <mxGeometry x="290" y="620" width="440" height="200" as="geometry" />
        </mxCell>
        <mxCell id="93CEhN1H_u9ybN63A4aO-3" value="&lt;font style=&quot;font-size: 14px;&quot;&gt;CLI&lt;/font&gt;" style="rounded=1;whiteSpace=wrap;html=1;fontFamily=VK Sans Display;strokeColor=none;arcsize=12;fillColor=#F6F7F9;spacing=0;spacingTop=12;spacingBottom=12;arcSize=12;absoluteArcSize=1;fontSize=14;fontColor=#212121;" vertex="1" parent="1">
          <mxGeometry x="370" y="160" width="120" height="40" as="geometry" />
        </mxCell>
        <mxCell id="93CEhN1H_u9ybN63A4aO-4" value="&lt;font style=&quot;font-size: 14px;&quot;&gt;Портал самообслуживания&lt;/font&gt;" style="rounded=1;whiteSpace=wrap;html=1;fontFamily=VK Sans Display;strokeColor=none;arcsize=12;fillColor=#F6F7F9;spacing=0;spacingTop=12;spacingBottom=12;arcSize=12;absoluteArcSize=1;fontSize=14;fontColor=#212121;" vertex="1" parent="1">
          <mxGeometry x="130" y="160" width="200" height="40" as="geometry" />
        </mxCell>
        <mxCell id="93CEhN1H_u9ybN63A4aO-5" value="&lt;font style=&quot;font-size: 14px;&quot;&gt;Terraform&lt;/font&gt;" style="rounded=1;whiteSpace=wrap;html=1;fontFamily=VK Sans Display;strokeColor=none;arcsize=12;fillColor=#F6F7F9;spacing=0;spacingTop=12;spacingBottom=12;arcSize=12;absoluteArcSize=1;fontSize=14;fontColor=#212121;" vertex="1" parent="1">
          <mxGeometry x="530" y="160" width="120" height="40" as="geometry" />
        </mxCell>
        <mxCell id="93CEhN1H_u9ybN63A4aO-6" value="&lt;font style=&quot;font-size: 14px;&quot;&gt;Портал администратора&lt;/font&gt;" style="rounded=1;whiteSpace=wrap;html=1;fontFamily=VK Sans Display;strokeColor=none;arcsize=12;fillColor=#F6F7F9;spacing=0;spacingTop=12;spacingBottom=12;arcSize=12;absoluteArcSize=1;fontSize=14;fontColor=#212121;" vertex="1" parent="1">
          <mxGeometry x="690" y="160" width="200" height="40" as="geometry" />
        </mxCell>
        <mxCell id="93CEhN1H_u9ybN63A4aO-7" value="&lt;font style=&quot;font-size: 14px;&quot;&gt;API&lt;/font&gt;" style="rounded=1;whiteSpace=wrap;html=1;fontFamily=VK Sans Display;strokeColor=none;arcsize=12;fillColor=#F6F7F9;spacing=0;spacingTop=12;spacingBottom=12;arcSize=12;absoluteArcSize=1;fontSize=14;fontColor=#212121;" vertex="1" parent="1">
          <mxGeometry x="40" y="240" width="940" height="40" as="geometry" />
        </mxCell>
        <mxCell id="93CEhN1H_u9ybN63A4aO-8" value="&lt;font style=&quot;font-size: 12px;&quot;&gt;IaaS&lt;/font&gt;" style="rounded=1;whiteSpace=wrap;html=1;fontFamily=VK Sans Display;strokeColor=none;arcsize=12;fillColor=#F6F7F9;spacing=0;spacingTop=12;spacingBottom=12;arcSize=12;absoluteArcSize=1;verticalAlign=top;fontStyle=1;fontSize=14;fontColor=#212121;" vertex="1" parent="1">
          <mxGeometry x="40" y="320" width="230" height="500" as="geometry" />
        </mxCell>
        <mxCell id="93CEhN1H_u9ybN63A4aO-9" value="&lt;font style=&quot;font-size: 12px;&quot;&gt;PaaS&lt;/font&gt;" style="rounded=1;whiteSpace=wrap;html=1;fontFamily=VK Sans Display;strokeColor=none;arcsize=12;fillColor=#F6F7F9;spacing=0;spacingTop=12;spacingBottom=12;arcSize=12;absoluteArcSize=1;verticalAlign=top;fontStyle=1;fontSize=14;fontColor=#212121;" vertex="1" parent="1">
          <mxGeometry x="290" y="320" width="440" height="276" as="geometry" />
        </mxCell>
        <mxCell id="93CEhN1H_u9ybN63A4aO-10" value="&lt;font style=&quot;font-size: 12px;&quot;&gt;Cloud Servers&lt;/font&gt;" style="rounded=1;whiteSpace=wrap;html=1;fontFamily=VK Sans Display;strokeColor=#E3E8F2;arcsize=12;fillColor=#FFF;spacing=12;verticalAlign=top;spacingTop=0;strokeWidth=4;spacingLeft=0;spacingBottom=0;fontStyle=1;arcSize=12;absoluteArcSize=1;fontSize=14;fontColor=#212121;" vertex="1" parent="1">
          <mxGeometry x="60" y="369" width="190" height="170" as="geometry" />
        </mxCell>
        <mxCell id="93CEhN1H_u9ybN63A4aO-11" value="&lt;font&gt;Cloud Network&lt;/font&gt;" style="rounded=1;whiteSpace=wrap;html=1;fontFamily=VK Sans Display;strokeColor=#E3E8F2;arcsize=12;fillColor=#FFF;spacing=12;verticalAlign=top;spacingTop=0;strokeWidth=4;spacingLeft=0;spacingBottom=0;fontStyle=1;arcSize=12;absoluteArcSize=1;fontColor=#212121;" vertex="1" parent="1">
          <mxGeometry x="60" y="565" width="190" height="175" as="geometry" />
        </mxCell>
        <mxCell id="93CEhN1H_u9ybN63A4aO-12" value="&lt;font&gt;Cloud Containers&lt;/font&gt;" style="rounded=1;whiteSpace=wrap;html=1;fontFamily=VK Sans Display;strokeColor=#E3E8F2;arcsize=12;fillColor=#FFF;spacing=12;verticalAlign=top;spacingTop=0;strokeWidth=4;spacingLeft=0;spacingBottom=0;fontStyle=1;arcSize=12;absoluteArcSize=1;fontColor=#212121;" vertex="1" parent="1">
          <mxGeometry x="310" y="369" width="188" height="209" as="geometry" />
        </mxCell>
        <mxCell id="93CEhN1H_u9ybN63A4aO-13" value="&lt;font&gt;Cloud Database&lt;/font&gt;" style="rounded=1;whiteSpace=wrap;html=1;fontFamily=VK Sans Display;strokeColor=#E3E8F2;arcsize=12;fillColor=#FFF;spacing=12;verticalAlign=top;spacingTop=0;strokeWidth=4;spacingLeft=0;spacingBottom=0;fontStyle=1;arcSize=12;absoluteArcSize=1;fontColor=#212121;" vertex="1" parent="1">
          <mxGeometry x="520" y="369" width="190" height="209" as="geometry" />
        </mxCell>
        <mxCell id="93CEhN1H_u9ybN63A4aO-14" value="&lt;font&gt;Виртуальные машины&lt;/font&gt;" style="rounded=1;whiteSpace=wrap;html=1;fontFamily=VK Sans Display;strokeColor=none;arcsize=12;fillColor=#F6F7F9;spacing=0;spacingTop=12;spacingBottom=12;arcSize=12;absoluteArcSize=1;fontSize=14;fontColor=#212121;" vertex="1" parent="1">
          <mxGeometry x="70" y="411" width="170" height="30" as="geometry" />
        </mxCell>
        <mxCell id="93CEhN1H_u9ybN63A4aO-15" value="&lt;font&gt;Образы&lt;/font&gt;" style="rounded=1;whiteSpace=wrap;html=1;fontFamily=VK Sans Display;strokeColor=none;arcsize=12;fillColor=#F6F7F9;spacing=0;spacingTop=12;spacingBottom=12;arcSize=12;absoluteArcSize=1;fontSize=14;fontColor=#212121;" vertex="1" parent="1">
          <mxGeometry x="160" y="453" width="80" height="30" as="geometry" />
        </mxCell>
        <mxCell id="93CEhN1H_u9ybN63A4aO-16" value="&lt;font&gt;Диски&lt;/font&gt;" style="rounded=1;whiteSpace=wrap;html=1;fontFamily=VK Sans Display;strokeColor=none;arcsize=12;fillColor=#F6F7F9;spacing=0;spacingTop=12;spacingBottom=12;arcSize=12;absoluteArcSize=1;fontSize=14;fontColor=#212121;" vertex="1" parent="1">
          <mxGeometry x="70" y="453" width="80" height="30" as="geometry" />
        </mxCell>
        <mxCell id="93CEhN1H_u9ybN63A4aO-17" value="&lt;font&gt;Файловые хранилища&lt;/font&gt;" style="rounded=1;whiteSpace=wrap;html=1;fontFamily=VK Sans Display;strokeColor=none;arcsize=12;fillColor=#F6F7F9;spacing=0;spacingTop=12;spacingBottom=12;arcSize=12;absoluteArcSize=1;fontSize=14;fontColor=#212121;" vertex="1" parent="1">
          <mxGeometry x="70" y="493" width="170" height="30" as="geometry" />
        </mxCell>
        <mxCell id="93CEhN1H_u9ybN63A4aO-18" value="&lt;font&gt;Сети&lt;/font&gt;" style="rounded=1;whiteSpace=wrap;html=1;fontFamily=VK Sans Display;strokeColor=none;arcsize=12;fillColor=#F6F7F9;spacing=0;spacingTop=12;spacingBottom=12;arcSize=12;absoluteArcSize=1;fontSize=14;fontColor=#212121;" vertex="1" parent="1">
          <mxGeometry x="70" y="609" width="80" height="30" as="geometry" />
        </mxCell>
        <mxCell id="93CEhN1H_u9ybN63A4aO-19" value="&lt;font&gt;Маршрутизаторы&lt;/font&gt;" style="rounded=1;whiteSpace=wrap;html=1;fontFamily=VK Sans Display;strokeColor=none;arcsize=12;fillColor=#F6F7F9;spacing=0;spacingTop=12;spacingBottom=12;arcSize=12;absoluteArcSize=1;fontSize=14;fontColor=#212121;" vertex="1" parent="1">
          <mxGeometry x="70" y="649" width="170" height="30" as="geometry" />
        </mxCell>
        <mxCell id="93CEhN1H_u9ybN63A4aO-20" value="&lt;font style=&quot;font-size: 14px;&quot;&gt;&lt;span style=&quot;font-size: 14px;&quot;&gt;Load Balancing&lt;/span&gt;&lt;/font&gt;" style="rounded=1;whiteSpace=wrap;html=1;fontFamily=VK Sans Display;strokeColor=none;arcsize=12;fillColor=#FFFFFF;spacing=0;spacingTop=12;spacingBottom=12;arcSize=12;absoluteArcSize=1;fontSize=14;fontColor=#212121;" vertex="1" parent="1">
          <mxGeometry x="60" y="760" width="190" height="40" as="geometry" />
        </mxCell>
        <mxCell id="93CEhN1H_u9ybN63A4aO-21" value="&lt;font&gt;DNS&lt;/font&gt;" style="rounded=1;whiteSpace=wrap;html=1;fontFamily=VK Sans Display;strokeColor=none;arcsize=12;fillColor=#F6F7F9;spacing=0;spacingTop=12;spacingBottom=12;arcSize=12;absoluteArcSize=1;fontSize=14;fontColor=#212121;" vertex="1" parent="1">
          <mxGeometry x="160" y="609" width="80" height="30" as="geometry" />
        </mxCell>
        <mxCell id="93CEhN1H_u9ybN63A4aO-22" value="&lt;font&gt;Группы безопасности&lt;/font&gt;" style="rounded=1;whiteSpace=wrap;html=1;fontFamily=VK Sans Display;strokeColor=none;arcsize=12;fillColor=#F6F7F9;spacing=0;spacingTop=12;spacingBottom=12;arcSize=12;absoluteArcSize=1;fontSize=14;fontColor=#212121;" vertex="1" parent="1">
          <mxGeometry x="70" y="690" width="170" height="30" as="geometry" />
        </mxCell>
        <mxCell id="93CEhN1H_u9ybN63A4aO-23" value="&lt;font&gt;MySQL&lt;/font&gt;" style="rounded=1;whiteSpace=wrap;html=1;fontFamily=VK Sans Display;strokeColor=none;arcsize=12;fillColor=#F6F7F9;spacing=0;spacingTop=12;spacingBottom=12;arcSize=12;absoluteArcSize=1;fontSize=14;fontColor=#212121;" vertex="1" parent="1">
          <mxGeometry x="533" y="411" width="164" height="30" as="geometry" />
        </mxCell>
        <mxCell id="93CEhN1H_u9ybN63A4aO-24" value="&lt;font&gt;Автомасштабирование&lt;/font&gt;" style="rounded=1;whiteSpace=wrap;html=1;fontFamily=VK Sans Display;strokeColor=none;arcsize=12;fillColor=#F6F7F9;spacing=0;spacingTop=12;spacingBottom=12;arcSize=12;absoluteArcSize=1;fontSize=14;fontColor=#212121;" vertex="1" parent="1">
          <mxGeometry x="322" y="451" width="164" height="30" as="geometry" />
        </mxCell>
        <mxCell id="93CEhN1H_u9ybN63A4aO-25" value="&lt;font&gt;Docker Registry&lt;/font&gt;" style="rounded=1;whiteSpace=wrap;html=1;fontFamily=VK Sans Display;strokeColor=none;arcsize=12;fillColor=#F6F7F9;spacing=0;spacingTop=12;spacingBottom=12;arcSize=12;absoluteArcSize=1;fontSize=14;fontColor=#212121;" vertex="1" parent="1">
          <mxGeometry x="322" y="490" width="164" height="30" as="geometry" />
        </mxCell>
        <mxCell id="93CEhN1H_u9ybN63A4aO-26" value="&lt;font&gt;Addons&lt;/font&gt;" style="rounded=1;whiteSpace=wrap;html=1;fontFamily=VK Sans Display;strokeColor=none;arcsize=12;fillColor=#F6F7F9;spacing=0;spacingTop=12;spacingBottom=12;arcSize=12;absoluteArcSize=1;fontSize=14;fontColor=#212121;" vertex="1" parent="1">
          <mxGeometry x="322" y="530" width="164" height="30" as="geometry" />
        </mxCell>
        <mxCell id="93CEhN1H_u9ybN63A4aO-27" value="&lt;font&gt;PostgreSQL&lt;/font&gt;" style="rounded=1;whiteSpace=wrap;html=1;fontFamily=VK Sans Display;strokeColor=none;arcsize=12;fillColor=#F6F7F9;spacing=0;spacingTop=12;spacingBottom=12;arcSize=12;absoluteArcSize=1;fontSize=14;fontColor=#212121;" vertex="1" parent="1">
          <mxGeometry x="533" y="530" width="164" height="30" as="geometry" />
        </mxCell>
        <mxCell id="93CEhN1H_u9ybN63A4aO-28" value="&lt;font&gt;Kubernetes&lt;/font&gt;" style="rounded=1;whiteSpace=wrap;html=1;fontFamily=VK Sans Display;strokeColor=none;arcsize=12;fillColor=#F6F7F9;spacing=0;spacingTop=12;spacingBottom=12;arcSize=12;absoluteArcSize=1;fontSize=14;fontColor=#212121;" vertex="1" parent="1">
          <mxGeometry x="322" y="411" width="164" height="30" as="geometry" />
        </mxCell>
        <mxCell id="93CEhN1H_u9ybN63A4aO-29" value="&lt;font&gt;Redis&lt;/font&gt;" style="rounded=1;whiteSpace=wrap;html=1;fontFamily=VK Sans Display;strokeColor=none;arcsize=12;fillColor=#F6F7F9;spacing=0;spacingTop=12;spacingBottom=12;arcSize=12;absoluteArcSize=1;fontSize=14;fontColor=#212121;" vertex="1" parent="1">
          <mxGeometry x="533" y="451" width="164" height="30" as="geometry" />
        </mxCell>
        <mxCell id="93CEhN1H_u9ybN63A4aO-30" value="&lt;font&gt;ClickHouse&lt;/font&gt;" style="rounded=1;whiteSpace=wrap;html=1;fontFamily=VK Sans Display;strokeColor=none;arcsize=12;fillColor=#F6F7F9;spacing=0;spacingTop=12;spacingBottom=12;arcSize=12;absoluteArcSize=1;fontSize=14;fontColor=#212121;" vertex="1" parent="1">
          <mxGeometry x="533" y="490" width="164" height="30" as="geometry" />
        </mxCell>
        <mxCell id="93CEhN1H_u9ybN63A4aO-31" value="Магазин приложений" style="rounded=1;whiteSpace=wrap;html=1;fontFamily=VK Sans Display;strokeColor=#E3E8F2;arcsize=12;fillColor=#FFF;spacing=12;verticalAlign=top;spacingTop=0;strokeWidth=4;spacingLeft=0;spacingBottom=0;fontStyle=1;arcSize=12;absoluteArcSize=1;fontColor=#212121;" vertex="1" parent="1">
          <mxGeometry x="310" y="670" width="400" height="130" as="geometry" />
        </mxCell>
        <mxCell id="93CEhN1H_u9ybN63A4aO-32" value="&lt;font&gt;Image-based сервисы&lt;/font&gt;" style="rounded=1;whiteSpace=wrap;html=1;fontFamily=VK Sans Display;strokeColor=none;arcsize=12;fillColor=#F6F7F9;spacing=0;spacingTop=12;spacingBottom=12;arcSize=12;absoluteArcSize=1;fontSize=14;fontColor=#212121;" vertex="1" parent="1">
          <mxGeometry x="328" y="720" width="170" height="60" as="geometry" />
        </mxCell>
        <mxCell id="93CEhN1H_u9ybN63A4aO-33" value="&lt;font&gt;Централизованные мультитенантные сервисы&lt;/font&gt;" style="rounded=1;whiteSpace=wrap;html=1;fontFamily=VK Sans Display;strokeColor=none;arcsize=12;fillColor=#F6F7F9;spacing=0;spacingTop=12;spacingBottom=12;arcSize=12;absoluteArcSize=1;fontSize=14;fontColor=#212121;" vertex="1" parent="1">
          <mxGeometry x="520" y="720" width="170" height="59" as="geometry" />
        </mxCell>
        <mxCell id="93CEhN1H_u9ybN63A4aO-34" value="" style="endArrow=none;html=1;fontFamily=VK Sans Display;fontColor=#212121;rounded=1;strokeColor=#7C8A9A;endFill=0;arcsize=8;startArrow=open;startFill=0;strokeWidth=2;arcSize=8;edgeStyle=orthogonalEdgeStyle;exitX=0.75;exitY=0;exitDx=0;exitDy=0;" edge="1" parent="1" source="93CEhN1H_u9ybN63A4aO-3">
          <mxGeometry width="50" height="50" relative="1" as="geometry">
            <mxPoint x="1010" y="180" as="sourcePoint" />
            <mxPoint x="790" y="100" as="targetPoint" />
            <Array as="points">
              <mxPoint x="460" y="130" />
              <mxPoint x="790" y="130" />
            </Array>
          </mxGeometry>
        </mxCell>
        <mxCell id="93CEhN1H_u9ybN63A4aO-35" value="" style="endArrow=none;html=1;fontFamily=VK Sans Display;fontColor=#212121;rounded=1;strokeColor=#7C8A9A;endFill=0;arcsize=8;startArrow=open;startFill=0;strokeWidth=2;arcSize=8;edgeStyle=orthogonalEdgeStyle;exitX=0.75;exitY=0;exitDx=0;exitDy=0;" edge="1" parent="1" source="93CEhN1H_u9ybN63A4aO-5">
          <mxGeometry width="50" height="50" relative="1" as="geometry">
            <mxPoint x="440" y="170" as="sourcePoint" />
            <mxPoint x="790" y="100" as="targetPoint" />
            <Array as="points">
              <mxPoint x="620" y="130" />
              <mxPoint x="790" y="130" />
            </Array>
          </mxGeometry>
        </mxCell>
        <mxCell id="93CEhN1H_u9ybN63A4aO-36" value="" style="endArrow=none;html=1;fontFamily=VK Sans Display;fontColor=#212121;rounded=1;strokeColor=#7C8A9A;endFill=0;arcsize=8;startArrow=open;startFill=0;strokeWidth=2;arcSize=8;edgeStyle=orthogonalEdgeStyle;" edge="1" parent="1" source="93CEhN1H_u9ybN63A4aO-6">
          <mxGeometry width="50" height="50" relative="1" as="geometry">
            <mxPoint x="450" y="180" as="sourcePoint" />
            <mxPoint x="790" y="100" as="targetPoint" />
          </mxGeometry>
        </mxCell>
        <mxCell id="93CEhN1H_u9ybN63A4aO-37" value="" style="endArrow=none;html=1;fontFamily=VK Sans Display;fontColor=#212121;rounded=1;strokeColor=#7C8A9A;endFill=0;arcsize=8;startArrow=open;startFill=0;strokeWidth=2;arcSize=8;edgeStyle=orthogonalEdgeStyle;" edge="1" parent="1" source="93CEhN1H_u9ybN63A4aO-4">
          <mxGeometry width="50" height="50" relative="1" as="geometry">
            <mxPoint x="800" y="170" as="sourcePoint" />
            <mxPoint x="230" y="100" as="targetPoint" />
          </mxGeometry>
        </mxCell>
        <mxCell id="93CEhN1H_u9ybN63A4aO-38" value="" style="endArrow=none;html=1;fontFamily=VK Sans Display;fontColor=#212121;rounded=1;strokeColor=#7C8A9A;endFill=0;arcsize=8;startArrow=open;startFill=0;strokeWidth=2;arcSize=8;edgeStyle=orthogonalEdgeStyle;exitX=0.25;exitY=0;exitDx=0;exitDy=0;" edge="1" parent="1" source="93CEhN1H_u9ybN63A4aO-3">
          <mxGeometry width="50" height="50" relative="1" as="geometry">
            <mxPoint x="240" y="170" as="sourcePoint" />
            <mxPoint x="230" y="100" as="targetPoint" />
            <Array as="points">
              <mxPoint x="400" y="120" />
              <mxPoint x="230" y="120" />
            </Array>
          </mxGeometry>
        </mxCell>
        <mxCell id="93CEhN1H_u9ybN63A4aO-39" value="" style="endArrow=none;html=1;fontFamily=VK Sans Display;fontColor=#212121;rounded=1;strokeColor=#7C8A9A;endFill=0;arcsize=8;startArrow=open;startFill=0;strokeWidth=2;arcSize=8;edgeStyle=orthogonalEdgeStyle;exitX=0.25;exitY=0;exitDx=0;exitDy=0;" edge="1" parent="1" source="93CEhN1H_u9ybN63A4aO-5">
          <mxGeometry width="50" height="50" relative="1" as="geometry">
            <mxPoint x="250" y="180" as="sourcePoint" />
            <mxPoint x="230" y="100" as="targetPoint" />
            <Array as="points">
              <mxPoint x="560" y="120" />
              <mxPoint x="230" y="120" />
            </Array>
          </mxGeometry>
        </mxCell>
        <mxCell id="93CEhN1H_u9ybN63A4aO-40" value="" style="endArrow=open;html=1;fontFamily=VK Sans Display;fontColor=#212121;rounded=1;strokeColor=#7C8A9A;endFill=0;arcsize=8;startArrow=open;startFill=0;strokeWidth=2;arcSize=8;" edge="1" parent="1" target="93CEhN1H_u9ybN63A4aO-4">
          <mxGeometry width="50" height="50" relative="1" as="geometry">
            <mxPoint x="230" y="240" as="sourcePoint" />
            <mxPoint x="260" y="106" as="targetPoint" />
          </mxGeometry>
        </mxCell>
        <mxCell id="93CEhN1H_u9ybN63A4aO-41" value="" style="endArrow=open;html=1;fontFamily=VK Sans Display;fontColor=#212121;rounded=1;strokeColor=#7C8A9A;endFill=0;arcsize=8;startArrow=open;startFill=0;strokeWidth=2;arcSize=8;" edge="1" parent="1" target="93CEhN1H_u9ybN63A4aO-3">
          <mxGeometry width="50" height="50" relative="1" as="geometry">
            <mxPoint x="430" y="240" as="sourcePoint" />
            <mxPoint x="240" y="210" as="targetPoint" />
          </mxGeometry>
        </mxCell>
        <mxCell id="93CEhN1H_u9ybN63A4aO-42" value="" style="endArrow=open;html=1;fontFamily=VK Sans Display;fontColor=#212121;rounded=1;strokeColor=#7C8A9A;endFill=0;arcsize=8;startArrow=open;startFill=0;strokeWidth=2;arcSize=8;entryX=0.5;entryY=1;entryDx=0;entryDy=0;" edge="1" parent="1" target="93CEhN1H_u9ybN63A4aO-5">
          <mxGeometry width="50" height="50" relative="1" as="geometry">
            <mxPoint x="590" y="240" as="sourcePoint" />
            <mxPoint x="440" y="210" as="targetPoint" />
          </mxGeometry>
        </mxCell>
        <mxCell id="93CEhN1H_u9ybN63A4aO-43" value="" style="endArrow=open;html=1;fontFamily=VK Sans Display;fontColor=#212121;rounded=1;strokeColor=#7C8A9A;endFill=0;arcsize=8;startArrow=open;startFill=0;strokeWidth=2;arcSize=8;entryX=0.5;entryY=1;entryDx=0;entryDy=0;" edge="1" parent="1" target="93CEhN1H_u9ybN63A4aO-6">
          <mxGeometry width="50" height="50" relative="1" as="geometry">
            <mxPoint x="790" y="240" as="sourcePoint" />
            <mxPoint x="600" y="210" as="targetPoint" />
          </mxGeometry>
        </mxCell>
        <mxCell id="93CEhN1H_u9ybN63A4aO-44" value="" style="endArrow=open;html=1;fontFamily=VK Sans Display;fontColor=#212121;rounded=1;strokeColor=#7C8A9A;endFill=0;arcsize=8;startArrow=open;startFill=0;strokeWidth=2;arcSize=8;" edge="1" parent="1">
          <mxGeometry width="50" height="50" relative="1" as="geometry">
            <mxPoint x="154" y="320" as="sourcePoint" />
            <mxPoint x="154" y="280" as="targetPoint" />
          </mxGeometry>
        </mxCell>
        <mxCell id="93CEhN1H_u9ybN63A4aO-45" value="" style="endArrow=open;html=1;fontFamily=VK Sans Display;fontColor=#212121;rounded=1;strokeColor=#7C8A9A;endFill=0;arcsize=8;startArrow=open;startFill=0;strokeWidth=2;arcSize=8;exitX=0.167;exitY=-0.039;exitDx=0;exitDy=0;exitPerimeter=0;" edge="1" parent="1">
          <mxGeometry width="50" height="50" relative="1" as="geometry">
            <mxPoint x="864.83" y="320" as="sourcePoint" />
            <mxPoint x="864.83" y="280" as="targetPoint" />
          </mxGeometry>
        </mxCell>
        <mxCell id="93CEhN1H_u9ybN63A4aO-46" value="" style="endArrow=open;html=1;fontFamily=VK Sans Display;fontColor=#212121;rounded=1;strokeColor=#7C8A9A;endFill=0;arcsize=8;startArrow=open;startFill=0;strokeWidth=2;arcSize=8;" edge="1" parent="1">
          <mxGeometry width="50" height="50" relative="1" as="geometry">
            <mxPoint x="510" y="320" as="sourcePoint" />
            <mxPoint x="510" y="280" as="targetPoint" />
          </mxGeometry>
        </mxCell>
        <mxCell id="93CEhN1H_u9ybN63A4aO-47" value="Common &amp;amp; Security Services" style="rounded=1;whiteSpace=wrap;html=1;fontFamily=VK Sans Display;strokeColor=none;arcsize=12;fillColor=#F6F7F9;spacing=10;verticalAlign=top;spacingTop=0;spacingLeft=0;spacingRight=0;fontStyle=1;arcSize=12;absoluteArcSize=1;fontColor=#212121;" vertex="1" parent="1">
          <mxGeometry x="750" y="320" width="230" height="500" as="geometry" />
        </mxCell>
        <mxCell id="93CEhN1H_u9ybN63A4aO-48" value="IAM" style="rounded=1;whiteSpace=wrap;html=1;fontFamily=VK Sans Display;strokeColor=none;arcsize=12;fillColor=#FFF;spacing=0;spacingTop=12;spacingBottom=12;arcSize=12;absoluteArcSize=1;fontSize=14;fontColor=#212121;" vertex="1" parent="1">
          <mxGeometry x="770.07" y="369" width="190" height="30" as="geometry" />
        </mxCell>
        <mxCell id="93CEhN1H_u9ybN63A4aO-49" value="Keycloak" style="rounded=1;whiteSpace=wrap;html=1;fontFamily=VK Sans Display;strokeColor=none;arcsize=12;fillColor=#FFF;spacing=0;spacingTop=12;spacingBottom=12;arcSize=12;absoluteArcSize=1;fontSize=14;fontColor=#212121;" vertex="1" parent="1">
          <mxGeometry x="770.07" y="409" width="190" height="30" as="geometry" />
        </mxCell>
        <mxCell id="93CEhN1H_u9ybN63A4aO-50" value="Резервное копирование" style="rounded=1;whiteSpace=wrap;html=1;fontFamily=VK Sans Display;strokeColor=none;arcsize=12;fillColor=#FFF;spacing=0;spacingTop=12;spacingBottom=12;arcSize=12;absoluteArcSize=1;fontSize=14;fontColor=#212121;" vertex="1" parent="1">
          <mxGeometry x="769.32" y="530" width="190" height="30" as="geometry" />
        </mxCell>
        <mxCell id="93CEhN1H_u9ybN63A4aO-51" value="Cloud Monitoring" style="rounded=1;whiteSpace=wrap;html=1;fontFamily=VK Sans Display;strokeColor=none;arcsize=12;fillColor=#FFF;spacing=0;spacingTop=12;spacingBottom=12;arcSize=12;absoluteArcSize=1;fontSize=14;fontColor=#212121;" vertex="1" parent="1">
          <mxGeometry x="769.32" y="570" width="190" height="30" as="geometry" />
        </mxCell>
        <mxCell id="93CEhN1H_u9ybN63A4aO-52" value="Cloud Audit" style="rounded=1;whiteSpace=wrap;html=1;fontFamily=VK Sans Display;strokeColor=none;arcsize=12;fillColor=#FFF;spacing=0;spacingTop=12;spacingBottom=12;arcSize=12;absoluteArcSize=1;fontSize=14;fontColor=#212121;" vertex="1" parent="1">
          <mxGeometry x="769.32" y="610" width="190" height="30" as="geometry" />
        </mxCell>
        <mxCell id="93CEhN1H_u9ybN63A4aO-53" value="Пользователь" style="shape=image;verticalLabelPosition=bottom;labelBackgroundColor=default;verticalAlign=top;aspect=fixed;imageAspect=0;image=data:image/svg+xml,PHN2ZyB4bWxucz0iaHR0cDovL3d3dy53My5vcmcvMjAwMC9zdmciIGZpbGw9Im5vbmUiIHZpZXdCb3g9IjAgMCAxOSAyMSIgaGVpZ2h0PSIyMSIgd2lkdGg9IjE5Ij4mI3hhOzxwYXRoIGZpbGw9IiMwMDc3RkYiIGQ9Ik0xMi41IDUuNUMxMi41IDMuNTY2MDMgMTAuOTM0IDIgOSAyQzcuMDY2MDMgMiA1LjUgMy41NjYwMyA1LjUgNS41QzUuNSA3LjQzMzk3IDcuMDY2MDMgOSA5IDlDMTAuOTM0IDkgMTIuNSA3LjQzMzk3IDEyLjUgNS41Wk0xNC41IDUuNUMxNC41IDguNTM4NTMgMTIuMDM4NSAxMSA5IDExQzUuOTYxNDcgMTEgMy41IDguNTM4NTMgMy41IDUuNUMzLjUgMi40NjE0NyA1Ljk2MTQ3IDAgOSAwQzEyLjAzODUgMCAxNC41IDIuNDYxNDcgMTQuNSA1LjVaTTIgMTcuNjQyOUMyIDE4LjU4NjIgMS45MTk4NyAxOC41IDIuNDU1ODggMTguNUgxNi4wNDQxQzE2LjU4MDEgMTguNSAxNi41IDE4LjU4NjIgMTYuNSAxNy42NDI5QzE2LjUgMTUuMzU0NyAxMy4xOTYgMTQgOS4yNSAxNEM1LjMwNDAyIDE0IDIgMTUuMzU0NyAyIDE3LjY0MjlaTTAgMTcuNjQyOUMwIDEzLjc2MjYgNC4yOTg5MiAxMiA5LjI1IDEyQzE0LjIwMTEgMTIgMTguNSAxMy43NjI2IDE4LjUgMTcuNjQyOUMxOC41IDE5LjY1OTMgMTcuNzE4OSAyMC41IDE2LjA0NDEgMjAuNUgyLjQ1NTg4QzAuNzgxMTA5IDIwLjUgMCAxOS42NTkzIDAgMTcuNjQyOVoiLz4mI3hhOzwvc3ZnPg==;fontFamily=VK Sans Display;fontSize=14;fontColor=#212121;" vertex="1" parent="1">
          <mxGeometry x="211" y="31" width="38" height="42" as="geometry" />
        </mxCell>
        <mxCell id="93CEhN1H_u9ybN63A4aO-54" value="Администратор" style="shape=image;verticalLabelPosition=bottom;labelBackgroundColor=default;verticalAlign=top;aspect=fixed;imageAspect=0;image=data:image/svg+xml,PHN2ZyB4bWxucz0iaHR0cDovL3d3dy53My5vcmcvMjAwMC9zdmciIGZpbGw9Im5vbmUiIHZpZXdCb3g9IjAgMCAxOSAyMSIgaGVpZ2h0PSIyMSIgd2lkdGg9IjE5Ij4mI3hhOzxwYXRoIGZpbGw9IiMwMDc3RkYiIGQ9Ik0xMi41IDUuNUMxMi41IDMuNTY2MDMgMTAuOTM0IDIgOSAyQzcuMDY2MDMgMiA1LjUgMy41NjYwMyA1LjUgNS41QzUuNSA3LjQzMzk3IDcuMDY2MDMgOSA5IDlDMTAuOTM0IDkgMTIuNSA3LjQzMzk3IDEyLjUgNS41Wk0xNC41IDUuNUMxNC41IDguNTM4NTMgMTIuMDM4NSAxMSA5IDExQzUuOTYxNDcgMTEgMy41IDguNTM4NTMgMy41IDUuNUMzLjUgMi40NjE0NyA1Ljk2MTQ3IDAgOSAwQzEyLjAzODUgMCAxNC41IDIuNDYxNDcgMTQuNSA1LjVaTTIgMTcuNjQyOUMyIDE4LjU4NjIgMS45MTk4NyAxOC41IDIuNDU1ODggMTguNUgxNi4wNDQxQzE2LjU4MDEgMTguNSAxNi41IDE4LjU4NjIgMTYuNSAxNy42NDI5QzE2LjUgMTUuMzU0NyAxMy4xOTYgMTQgOS4yNSAxNEM1LjMwNDAyIDE0IDIgMTUuMzU0NyAyIDE3LjY0MjlaTTAgMTcuNjQyOUMwIDEzLjc2MjYgNC4yOTg5MiAxMiA5LjI1IDEyQzE0LjIwMTEgMTIgMTguNSAxMy43NjI2IDE4LjUgMTcuNjQyOUMxOC41IDE5LjY1OTMgMTcuNzE4OSAyMC41IDE2LjA0NDEgMjAuNUgyLjQ1NTg4QzAuNzgxMTA5IDIwLjUgMCAxOS42NTkzIDAgMTcuNjQyOVoiLz4mI3hhOzwvc3ZnPg==;fontFamily=VK Sans Display;fontSize=14;fontColor=#212121;" vertex="1" parent="1">
          <mxGeometry x="771" y="31" width="38" height="42" as="geometry" />
        </mxCell>
        <mxCell id="93CEhN1H_u9ybN63A4aO-55" value="Cloud Logging" style="rounded=1;whiteSpace=wrap;html=1;fontFamily=VK Sans Display;strokeColor=none;arcsize=12;fillColor=#FFF;spacing=0;spacingTop=12;spacingBottom=12;arcSize=12;absoluteArcSize=1;fontSize=14;fontColor=#212121;" vertex="1" parent="1">
          <mxGeometry x="769.32" y="650" width="190" height="30" as="geometry" />
        </mxCell>
        <mxCell id="93CEhN1H_u9ybN63A4aO-56" value="Cloud Alerting" style="rounded=1;whiteSpace=wrap;html=1;fontFamily=VK Sans Display;strokeColor=none;arcsize=12;fillColor=#FFF;spacing=0;spacingTop=12;spacingBottom=12;arcSize=12;absoluteArcSize=1;fontSize=14;fontColor=#212121;" vertex="1" parent="1">
          <mxGeometry x="769.32" y="690" width="190" height="30" as="geometry" />
        </mxCell>
        <mxCell id="93CEhN1H_u9ybN63A4aO-58" value="Мониторинг" style="rounded=1;whiteSpace=wrap;html=1;fontFamily=VK Sans Display;strokeColor=none;arcsize=12;fillColor=#FFF;spacing=0;spacingTop=12;spacingBottom=12;arcSize=12;absoluteArcSize=1;fontSize=14;fontColor=#212121;" vertex="1" parent="1">
          <mxGeometry x="769.32" y="730" width="190" height="30" as="geometry" />
        </mxCell>
        <mxCell id="93CEhN1H_u9ybN63A4aO-59" value="Логирование" style="rounded=1;whiteSpace=wrap;html=1;fontFamily=VK Sans Display;strokeColor=none;arcsize=12;fillColor=#FFF;spacing=0;spacingTop=12;spacingBottom=12;arcSize=12;absoluteArcSize=1;fontSize=14;fontColor=#212121;" vertex="1" parent="1">
          <mxGeometry x="769.32" y="770" width="190" height="30" as="geometry" />
        </mxCell>
        <mxCell id="93CEhN1H_u9ybN63A4aO-60" value="Биллинг" style="rounded=1;whiteSpace=wrap;html=1;fontFamily=VK Sans Display;strokeColor=none;arcsize=12;fillColor=#FFF;spacing=0;spacingTop=12;spacingBottom=12;arcSize=12;absoluteArcSize=1;fontSize=14;fontColor=#212121;" vertex="1" parent="1">
          <mxGeometry x="769.32" y="449" width="190" height="30" as="geometry" />
        </mxCell>
        <mxCell id="93CEhN1H_u9ybN63A4aO-61" value="Квоты" style="rounded=1;whiteSpace=wrap;html=1;fontFamily=VK Sans Display;strokeColor=none;arcsize=12;fillColor=#FFF;spacing=0;spacingTop=12;spacingBottom=12;arcSize=12;absoluteArcSize=1;fontSize=14;fontColor=#212121;" vertex="1" parent="1">
          <mxGeometry x="770.07" y="490" width="190" height="30" as="geometry" />
        </mxCell>
      </root>
    </mxGraphModel>
  </diagram>
</mxfile>
